<svg xmlns="http://www.w3.org/2000/svg" viewBox="0 0 53.14 53.14"><defs><style>.cls-1{fill:#fff;}</style></defs><g id="Layer_2" data-name="Layer 2"><g id="Layer_1-2" data-name="Layer 1"><g id="fb_icon"><path id="fb_icon-2" data-name="fb_icon" class="cls-1" d="M50.22,2.92a9.6,9.6,0,0,0-7-2.92H10a9.6,9.6,0,0,0-7,2.92A9.6,9.6,0,0,0,0,10V43.18a9.6,9.6,0,0,0,2.92,7,9.6,9.6,0,0,0,7,2.92H43.18a10,10,0,0,0,10-10V10A9.6,9.6,0,0,0,50.22,2.92Zm-14,11h-4.6q-1.74,0-2.19.6A3.67,3.67,0,0,0,29,16.61v3.32h7.24l-.68,6.64H29V45.88H21.74V26.57H16.92V19.93h4.82V16c0-3,.56-5.17,1.66-6.6s3.17-2.15,6.19-2.15h6.64Z"/></g></g></g></svg>