<?xml version="1.0" standalone="no"?>
<!DOCTYPE svg PUBLIC "-//W3C//DTD SVG 20010904//EN"
 "http://www.w3.org/TR/2001/REC-SVG-20010904/DTD/svg10.dtd">
<svg version="1.0" xmlns="http://www.w3.org/2000/svg"
 width="600.000000pt" height="400.000000pt" viewBox="0 0 600.000000 400.000000"
 preserveAspectRatio="xMidYMid meet">
<metadata>
Created by potrace 1.15, written by Peter Selinger 2001-2017
</metadata>
<g transform="translate(0.000000,400.000000) scale(0.100000,-0.100000)"
fill="#000000" stroke="none">
<path d="M0 2000 l0 -2000 3000 0 3000 0 0 2000 0 2000 -3000 0 -3000 0 0
-2000z m2886 1009 c7 -19 13 -61 14 -94 1 -81 14 -144 33 -163 14 -13 21 -13
43 -3 24 11 26 15 20 52 -4 22 -18 63 -32 91 -52 103 14 190 80 106 l26 -33 0
32 c0 58 41 56 105 -5 l40 -39 10 35 c6 19 15 37 21 39 30 10 130 -171 103
-187 -8 -5 -9 -29 -4 -81 6 -62 14 -83 45 -129 20 -30 63 -102 95 -160 49 -89
59 -115 63 -168 7 -93 -8 -96 -53 -10 -38 73 -125 228 -128 228 -1 0 -1 -78 1
-173 3 -167 2 -174 -20 -207 -13 -19 -30 -36 -38 -38 -13 -2 -15 28 -17 200
-1 112 -6 240 -11 285 l-10 82 -98 141 c-57 81 -100 135 -102 126 -2 -9 -10
-16 -19 -16 -13 0 -14 -8 -9 -41 16 -97 46 -128 96 -97 10 7 22 9 26 6 11 -12
-6 -59 -31 -84 -27 -27 -45 -24 -45 7 0 29 -16 23 -39 -16 -19 -33 -54 -55
-87 -55 -8 0 -31 16 -51 35 -20 19 -37 35 -39 35 -1 0 -24 -18 -49 -40 -90
-78 -165 -35 -165 95 0 30 -4 55 -9 55 -4 0 -19 -32 -32 -72 -13 -39 -32 -76
-42 -82 -24 -15 -65 9 -91 53 -24 42 -35 176 -16 211 16 30 24 17 40 -75 23
-127 39 -135 71 -34 38 119 100 183 129 130 5 -11 10 -56 10 -100 0 -59 4 -84
16 -95 24 -24 66 -19 88 10 19 26 19 57 0 186 -5 37 -3 54 10 73 22 33 36 28
52 -16z m1066 -26 c48 -47 48 -47 48 -19 0 33 16 66 33 66 16 0 100 -157 92
-170 -4 -6 -11 -8 -16 -5 -5 4 -9 -17 -9 -47 0 -44 6 -64 36 -111 20 -32 38
-56 40 -54 2 2 -8 78 -23 170 -25 157 -25 167 -9 191 9 14 23 26 32 26 15 0
64 -91 64 -119 0 -11 5 -9 21 5 21 19 21 18 40 -4 24 -31 33 -82 22 -128 -12
-55 -33 -56 -33 -2 -1 24 -10 59 -21 78 -13 24 -18 28 -17 14 2 -11 -3 -28
-10 -37 -11 -12 -9 -37 7 -139 11 -67 22 -144 26 -170 4 -34 22 -70 65 -135
57 -84 60 -91 60 -150 0 -35 -4 -63 -9 -63 -5 0 -29 34 -54 76 l-44 76 -5 -55
c-3 -40 -12 -65 -32 -91 -15 -20 -31 -36 -35 -36 -5 0 -11 71 -12 158 -4 157
-4 159 -34 203 l-30 44 -5 -185 c-4 -157 -8 -189 -23 -212 -24 -35 -60 -58
-93 -58 -26 0 -82 33 -97 57 -12 19 -45 16 -56 -6 -6 -10 -15 -40 -21 -67 -16
-72 -34 -94 -74 -94 -48 0 -90 42 -110 111 -17 58 -14 125 9 155 10 14 13 8
17 -43 7 -76 31 -123 61 -123 18 0 30 16 65 90 26 55 52 96 68 107 l27 17 47
-54 c32 -37 52 -51 63 -47 36 14 44 117 27 364 l-9 133 -54 67 c-95 118 -107
140 -107 198 0 80 7 82 72 18z m472 -23 c49 -75 55 -90 31 -90 -19 0 -19 -30
1 -161 23 -144 25 -534 4 -603 -19 -60 -62 -100 -132 -121 -131 -38 -160 7
-40 64 29 14 60 40 82 69 l35 47 -1 135 c-1 84 -13 233 -34 396 -29 242 -31
263 -16 297 8 20 17 37 19 37 2 0 25 -31 51 -70z m-1996 48 c15 -15 15 -51 0
-66 -8 -8 -8 -15 2 -27 12 -14 4 -26 -60 -90 -74 -74 -109 -92 -151 -76 -20 7
-14 14 65 80 47 39 86 76 86 80 0 5 -7 14 -15 21 -18 15 -20 61 -3 78 7 7 24
12 38 12 14 0 31 -5 38 -12z m1152 -50 c34 -71 37 -103 13 -116 -15 -9 -15
-16 0 -98 22 -120 40 -360 35 -464 -4 -76 -8 -93 -41 -152 -68 -122 -173 -182
-229 -131 -26 23 -23 30 21 53 22 11 54 33 73 51 18 17 47 42 65 55 17 14 36
38 41 54 11 29 -13 356 -42 581 -9 72 -11 123 -5 154 8 42 23 75 36 75 2 0 17
-28 33 -62z m138 -17 c48 -90 50 -101 22 -101 -16 0 -19 -5 -16 -22 8 -38 35
-225 51 -358 21 -172 19 -217 -7 -270 -37 -72 -48 -64 -48 37 0 115 -13 225
-57 463 -22 122 -33 210 -29 236 6 48 23 94 33 94 5 0 27 -36 51 -79z m-1933
46 c9 -14 19 -66 25 -123 11 -111 18 -144 31 -144 13 0 11 12 -6 53 -17 42
-20 119 -5 148 26 48 80 -40 80 -131 0 -42 4 -51 29 -69 16 -12 36 -21 45 -21
21 0 11 49 -20 104 -28 48 -32 117 -9 136 20 17 60 -3 81 -40 13 -23 14 -22 8
26 -5 40 -3 54 11 67 39 40 66 14 105 -99 19 -55 18 -64 -12 -64 -14 0 -17 -6
-14 -22 3 -13 10 -63 16 -113 16 -130 16 -132 42 -131 15 1 24 -6 28 -24 9
-36 34 -36 60 -1 25 36 56 40 65 10 8 -25 29 -20 33 8 2 11 15 26 29 32 l26
12 -6 -67 c-9 -89 -25 -108 -90 -100 -35 4 -55 1 -73 -10 -14 -10 -38 -15 -58
-12 l-34 4 -4 -96 c-5 -112 -22 -155 -86 -217 -82 -81 -230 -129 -319 -104
-86 24 -131 103 -119 208 8 70 15 86 37 80 15 -4 20 6 31 57 19 87 39 82 53
-13 13 -81 28 -101 77 -101 28 0 99 29 128 53 28 22 60 69 60 89 0 17 -2 18
-30 3 -37 -19 -60 -19 -89 1 -21 15 -23 23 -19 77 4 52 9 64 36 88 42 38 78
37 118 -2 60 -58 65 -28 31 178 -17 102 -25 131 -35 124 -10 -6 -10 -19 3 -66
21 -82 19 -100 -13 -136 -34 -38 -109 -52 -131 -25 -7 9 -22 16 -32 16 -18 0
-19 -9 -18 -138 1 -111 -2 -144 -15 -170 -31 -60 -43 -42 -51 76 -3 59 -7 118
-8 132 -2 19 -9 26 -37 31 -57 12 -70 38 -70 142 0 112 -19 108 -30 -7 -8 -85
-22 -108 -58 -104 -49 6 -67 48 -70 169 -3 72 0 109 7 109 10 0 17 -21 41
-128 7 -31 17 -51 24 -49 6 2 20 40 32 85 21 85 44 122 76 122 27 0 39 -42 37
-125 -3 -70 3 -95 22 -95 13 0 11 57 -6 147 -16 82 -20 165 -8 176 13 14 33 7
48 -16z m2175 -246 c14 -28 12 -61 -4 -61 -9 0 -16 -21 -22 -61 l-9 -62 -45
34 c-56 44 -79 82 -64 106 12 20 54 30 54 14 0 -6 7 -11 15 -11 9 0 12 6 9 15
-15 38 47 61 66 26z m-1284 -123 c27 -52 52 -133 59 -192 8 -63 17 -76 32 -43
13 28 103 78 168 92 l50 11 6 50 c8 66 16 82 51 100 90 46 175 -70 119 -162
-20 -32 -67 -59 -141 -80 -41 -11 -34 -12 102 -13 81 -1 149 -5 152 -10 4 -5
0 -22 -8 -38 -8 -15 -19 -40 -24 -54 -9 -23 -21 -29 -84 -43 -40 -9 -95 -19
-123 -22 -60 -8 -95 -27 -95 -54 0 -19 38 -55 71 -65 21 -7 24 -26 9 -54 -8
-16 -16 -17 -67 -9 -84 13 -142 43 -194 98 l-47 50 -55 -63 c-56 -64 -153
-127 -196 -127 -40 0 -90 28 -112 63 l-23 35 -46 -20 c-85 -37 -193 -69 -203
-59 -11 11 52 61 170 135 78 49 94 64 104 95 6 20 19 47 28 61 l16 25 5 -39 5
-40 63 60 c77 74 82 104 27 173 -40 50 -45 91 -15 121 28 28 43 25 79 -15 36
-41 44 -83 16 -77 -11 2 -10 -4 3 -30 9 -19 16 -57 16 -88 0 -83 -50 -157
-159 -236 -57 -40 2 -81 70 -48 45 21 128 102 151 146 25 47 14 153 -26 257
-28 72 -30 86 -20 112 16 39 45 38 66 -3z m-908 -121 c3 -14 -23 -30 -120 -76
-68 -33 -124 -58 -126 -56 -9 8 32 67 65 94 54 45 93 61 138 59 29 -2 41 -8
43 -21z m1994 -1266 c12 -12 19 -27 16 -39 -5 -18 2 -20 92 -27 53 -3 113 -3
133 0 20 4 44 2 57 -5 48 -26 68 -142 30 -180 -23 -23 -62 -26 -79 -7 -8 10
-40 14 -120 13 -60 -1 -113 -4 -117 -8 -4 -5 -16 -8 -26 -8 -21 0 -38 36 -38
81 l0 30 -757 -7 c-918 -8 -942 -6 -1028 86 l-30 32 165 -6 c91 -3 503 -9 915
-12 617 -5 748 -4 738 7 -17 17 -16 34 3 53 20 20 21 20 46 -3z"/>
<path d="M2084 2363 c-44 -235 -309 -322 -375 -124 -7 19 -8 12 -5 -26 6 -67
20 -91 61 -109 147 -61 320 64 342 247 7 59 -12 69 -23 12z"/>
<path d="M2777 2299 c-33 -19 7 -105 63 -134 l29 -15 3 37 c2 30 10 42 35 58
47 30 41 43 -24 50 -32 4 -65 8 -73 10 -8 3 -23 0 -33 -6z"/>
</g>
</svg>
