<?xml version="1.0" standalone="no"?>
<!DOCTYPE svg PUBLIC "-//W3C//DTD SVG 20010904//EN"
 "http://www.w3.org/TR/2001/REC-SVG-20010904/DTD/svg10.dtd">
<svg version="1.0" xmlns="http://www.w3.org/2000/svg"
 width="600.000000pt" height="316.000000pt" viewBox="0 0 600.000000 316.000000"
 preserveAspectRatio="xMidYMid meet">
<metadata>
Created by potrace 1.15, written by Peter Selinger 2001-2017
</metadata>
<g transform="translate(0.000000,316.000000) scale(0.100000,-0.100000)"
fill="#000000" stroke="none">
<path d="M0 2310 l0 -850 3000 0 3000 0 0 120 0 120 -1800 0 -1800 0 0 125 0
125 1800 0 1800 0 0 120 0 120 -1800 0 -1800 0 0 120 0 120 1800 0 1800 0 0
120 0 120 -1800 0 -1800 0 0 125 0 125 1800 0 1800 0 0 120 0 120 -3000 0
-3000 0 0 -850z"/>
<path d="M0 1090 l0 -120 3000 0 3000 0 0 120 0 120 -3000 0 -3000 0 0 -120z"/>
<path d="M0 610 l0 -120 3000 0 3000 0 0 120 0 120 -3000 0 -3000 0 0 -120z"/>
<path d="M0 120 l0 -120 3000 0 3000 0 0 120 0 120 -3000 0 -3000 0 0 -120z"/>
</g>
</svg>
