<svg xmlns="http://www.w3.org/2000/svg" viewBox="0 0 53.14 53.14"><defs><style>.cls-1{fill:#fff;}</style></defs><g id="Layer_2" data-name="Layer 2"><g id="Layer_1-2" data-name="Layer 1"><g id="ig_icon"><path id="ig_icon-2" data-name="ig_icon" class="cls-1" d="M50.22,2.92a9.6,9.6,0,0,0-7-2.92H10a9.6,9.6,0,0,0-7,2.92A9.6,9.6,0,0,0,0,10V43.18a9.6,9.6,0,0,0,2.92,7,9.6,9.6,0,0,0,7,2.92H43.18a10,10,0,0,0,10-10V10A9.6,9.6,0,0,0,50.22,2.92ZM37.9,34a13.62,13.62,0,0,1-5,5,13.83,13.83,0,0,1-13.75,0,13.62,13.62,0,0,1-5-5,13.76,13.76,0,0,1,0-13.75,13.73,13.73,0,0,1,18.73-5,13.52,13.52,0,0,1,5,5A13.76,13.76,0,0,1,37.9,34Zm4.93-18.84A3.42,3.42,0,0,1,37,12.72,3.45,3.45,0,0,1,40.42,9.3a3.47,3.47,0,0,1,3.43,3.39A3.32,3.32,0,0,1,42.83,15.13ZM33.17,23a8.21,8.21,0,1,1-3-3A8.11,8.11,0,0,1,33.17,23Z"/></g></g></g></svg>