<svg xmlns="http://www.w3.org/2000/svg" viewBox="0 0 53.14 53.14"><defs><style>.cls-1{fill:#fff;}</style></defs><g id="Layer_2" data-name="Layer 2"><g id="Layer_1-2" data-name="Layer 1"><g id="mail_icon"><path id="mail_icon-2" data-name="mail_icon" class="cls-1" d="M27.63,29.72l14.64-10.3V37a1.62,1.62,0,0,1-1.76,1.75H12.63A1.62,1.62,0,0,1,10.88,37V19.42l14.63,10.3.55.24a1.13,1.13,0,0,0,.51.13,1.1,1.1,0,0,0,.51-.13ZM42.1,15.41a2,2,0,0,0-.67-.77,1.65,1.65,0,0,0-.92-.25H12.63a1.65,1.65,0,0,0-.92.25,2,2,0,0,0-.67.77L26.57,26.24Zm11-5.45V43.18a10,10,0,0,1-10,10H10a9.6,9.6,0,0,1-7-2.92,9.6,9.6,0,0,1-2.92-7V10a9.6,9.6,0,0,1,2.92-7A9.6,9.6,0,0,1,10,0H43.18a9.6,9.6,0,0,1,7,2.92A9.6,9.6,0,0,1,53.14,10Zm-7.4,6.15a5.11,5.11,0,0,0-1.49-3.72,5,5,0,0,0-3.74-1.51H12.63a5,5,0,0,0-3.74,1.51A5.11,5.11,0,0,0,7.4,16.11V37a5.09,5.09,0,0,0,5.23,5.23H40.51A5.09,5.09,0,0,0,45.74,37Z"/></g></g></g></svg>