<svg xmlns="http://www.w3.org/2000/svg" viewBox="0 0 53.14 53.14"><defs><style>.cls-1{fill:#fff;}</style></defs><g id="Layer_2" data-name="Layer 2"><g id="Layer_1-2" data-name="Layer 1"><g id="twitter_icon"><path id="twitter_icon-2" data-name="twitter_icon" class="cls-1" d="M50.22,2.92a9.6,9.6,0,0,0-7-2.92H10a9.6,9.6,0,0,0-7,2.92A9.6,9.6,0,0,0,0,10V43.18a9.6,9.6,0,0,0,2.92,7,9.6,9.6,0,0,0,7,2.92H43.18a10,10,0,0,0,10-10V10A9.6,9.6,0,0,0,50.22,2.92ZM42,18.72v1a22.2,22.2,0,0,1-1.51,8,25.14,25.14,0,0,1-4.27,7.24,20.26,20.26,0,0,1-7.13,5.32,22.6,22.6,0,0,1-9.66,2A22.17,22.17,0,0,1,7.25,38.72c.65.05,1.28.08,1.89.08A15.38,15.38,0,0,0,19,35.4a7.29,7.29,0,0,1-4.57-1.54,8.38,8.38,0,0,1-2.83-4,7.73,7.73,0,0,0,1.51.15,10,10,0,0,0,2.11-.22A7.87,7.87,0,0,1,10.61,27a7.7,7.7,0,0,1-1.78-5v-.15a6.81,6.81,0,0,0,3.55,1,7.45,7.45,0,0,1-3.55-6.56,7.34,7.34,0,0,1,1.14-4,21.89,21.89,0,0,0,7.2,5.88,22,22,0,0,0,9.1,2.42A7.55,7.55,0,0,1,26,18.8a7.62,7.62,0,0,1,2.34-5.59,7.94,7.94,0,0,1,11.4.15,16.23,16.23,0,0,0,5.06-1.88,7.86,7.86,0,0,1-3.47,4.37,16.07,16.07,0,0,0,4.52-1.28A16.11,16.11,0,0,1,42,18.72Z"/></g></g></g></svg>